# File created by Blade
# Date/Time:  Wed Apr 08 17:39:35 2015
# Frame Rate: 120.000 fps
#------------------------------------------------------
:FULLY-SPECIFIED
:DEGREES
2353
root 9.806958 36.585722 2.334054 168.749655 -70.752075 -508.567548
Spine -11.797376 -0.995116 0.193712
Head 43.281915 6.902976 17.415494
LeftShoulder -7.660780 20.306380 15.743243
LeftArm 20.198459 17.723989 -74.336903
LeftForeArm 14.331296 -0.000000 23.438373
LeftHand -12.986149 -0.000000 -10.346211
LeftHandThumb1 -26.253704 0.000000 33.147579
RightShoulder -38.627871 -49.836840 23.389045
RightArm 54.912699 -17.958591 51.439088
RightForeArm 1.486723 -0.000000 18.143503
RightHand -4.740593 -0.000000 18.263492
RightHandThumb1 -24.326973 -0.000000 -32.862282
LeftUpLeg -26.602170 11.690063 -1.511572
LeftLeg 17.854157 -0.000000 -0.000000
LeftFoot -12.701552 12.172593 0.635850
LeftToeBase 3.043099 -0.000000 -0.000000
RightUpLeg -73.869048 -9.882315 -9.476121
RightLeg 62.289528 -0.000000 -0.000000
RightFoot 23.040378 -17.160489 20.151237
RightToeBase 17.952965 -0.000000 -0.000000
2354
root 9.815921 36.596107 2.340355 168.905896 -70.752821 -508.159522
Spine -12.583967 -0.935127 0.367493
Head 43.448623 6.802935 17.421648
LeftShoulder -7.696822 20.421230 15.736818
LeftArm 20.142501 17.802103 -74.346750
LeftForeArm 14.332182 0.000000 23.656246
LeftHand -12.948348 0.000000 -10.396913
LeftHandThumb1 -26.253704 0.000000 33.147579
RightShoulder -38.683336 -49.881931 23.410891
RightArm 54.950369 -18.099991 51.158858
RightForeArm 1.718544 0.000000 17.983000
RightHand -4.943354 0.000000 20.140672
RightHandThumb1 -24.326973 -0.000000 -32.862282
LeftUpLeg -27.255907 11.588722 -1.478308
LeftLeg 18.005778 -0.000000 -0.000000
LeftFoot -12.684889 12.205724 0.557949
LeftToeBase 3.009256 -0.000000 -0.000000
RightUpLeg -74.495723 -10.439661 -8.784894
RightLeg 62.917217 -0.000000 -0.000000
RightFoot 24.318230 -18.019907 20.948874
RightToeBase 20.306198 -0.000000 -0.000000
2355
root 9.820343 36.604780 2.344881 169.075820 -70.733073 -507.843967
Spine -13.293973 -0.846917 0.502549
Head 43.618897 6.714560 17.452144
LeftShoulder -7.699756 20.513742 15.738073
LeftArm 20.058341 17.880990 -74.345628
LeftForeArm 14.330887 0.000000 23.865043
LeftHand -12.930405 0.000000 -10.479030
LeftHandThumb1 -26.253704 0.000000 33.147579
RightShoulder -38.756213 -49.938429 23.455611
RightArm 54.989524 -18.260550 50.874534
RightForeArm 1.983955 -0.000000 17.875021
RightHand -5.057250 -0.000000 21.777660
RightHandThumb1 -24.326973 -0.000000 -32.862282
LeftUpLeg -27.811116 11.492389 -1.442132
LeftLeg 18.139388 -0.000000 -0.000000
LeftFoot -12.684173 12.254980 0.432758
LeftToeBase 2.988826 -0.000000 -0.000000
RightUpLeg -75.119554 -10.949898 -8.079994
RightLeg 63.739955 -0.000000 -0.000000
RightFoot 25.550151 -18.423047 21.260371
RightToeBase 22.326236 -0.000000 -0.000000
2356
root 9.821895 36.611906 2.348220 169.281023 -70.684055 -507.637655
Spine -13.910910 -0.740293 0.588678
Head 43.761502 6.614532 17.503187
LeftShoulder -7.757790 20.589473 15.728614
LeftArm 20.020171 18.035337 -74.289995
LeftForeArm 14.295982 -0.000000 24.037473
LeftHand -12.926607 -0.000000 -10.551341
LeftHandThumb1 -26.253704 0.000000 33.147579
RightShoulder -38.848090 -49.985153 23.543875
RightArm 55.047018 -18.407324 50.585251
RightForeArm 2.278436 -0.000000 17.807137
RightHand -5.194116 0.000000 23.383047
RightHandThumb1 -24.326973 -0.000000 -32.862282
LeftUpLeg -28.265475 11.405584 -1.402446
LeftLeg 18.242448 -0.000000 -0.000000
LeftFoot -12.704433 12.300805 0.277564
LeftToeBase 2.988152 -0.000000 -0.000000
RightUpLeg -75.739140 -11.421640 -7.357164
RightLeg 64.684119 -0.000000 -0.000000
RightFoot 26.863039 -18.498208 21.341370
RightToeBase 23.330379 -0.000000 -0.000000
2357
root 9.816678 36.616225 2.349528 169.488994 -70.613890 -507.585106
Spine -14.359309 -0.618049 0.609349
Head 43.887994 6.532289 17.600372
LeftShoulder -7.813238 20.673527 15.715096
LeftArm 20.011779 18.158914 -74.216626
LeftForeArm 14.310086 -0.000000 24.174467
LeftHand -12.862849 -0.000000 -10.602735
LeftHandThumb1 -26.253704 0.000000 33.147579
RightShoulder -38.900087 -50.000547 23.612473
RightArm 55.087184 -18.574006 50.312042
RightForeArm 2.624272 -0.000000 17.756823
RightHand -5.288869 -0.000000 24.716154
RightHandThumb1 -24.326973 -0.000000 -32.862282
LeftUpLeg -28.531654 11.358948 -1.380709
LeftLeg 18.294200 -0.000000 -0.000000
LeftFoot -12.728089 12.371373 0.181788
LeftToeBase 3.046652 -0.000000 -0.000000
RightUpLeg -76.278484 -11.800718 -6.703445
RightLeg 65.787395 -0.000000 -0.000000
RightFoot 28.243935 -18.169640 21.237101
RightToeBase 23.953474 -0.000000 -0.000000
2358
root 9.814986 36.622425 2.350920 169.783969 -70.532954 -507.540509
Spine -14.901715 -0.497890 0.631862
Head 44.022484 6.474436 17.684407
LeftShoulder -7.868915 20.783702 15.698154
LeftArm 20.005729 18.289210 -74.124635
LeftForeArm 14.272050 -0.000000 24.308944
LeftHand -12.822923 0.000000 -10.702195
LeftHandThumb1 -26.253704 0.000000 33.147579
RightShoulder -38.980022 -50.033347 23.695844
RightArm 55.100705 -18.714402 50.097163
RightForeArm 2.884924 -0.000000 17.786118
RightHand -5.372418 0.000000 25.943203
RightHandThumb1 -24.326973 -0.000000 -32.862282
LeftUpLeg -28.886690 11.318955 -1.371977
LeftLeg 18.349070 -0.000000 -0.000000
LeftFoot -12.742062 12.431641 0.014601
LeftToeBase 3.096073 -0.000000 -0.000000
RightUpLeg -76.916717 -12.164005 -5.988972
RightLeg 66.949326 -0.000000 -0.000000
RightFoot 29.592391 -17.795428 21.666802
RightToeBase 24.182261 -0.000000 -0.000000
2359
root 9.813065 36.627976 2.350356 170.083592 -70.465852 -507.523723
Spine -15.415958 -0.408855 0.631328
Head 44.154953 6.413093 17.754224
LeftShoulder -7.916819 20.884822 15.695253
LeftArm 19.969300 18.400851 -74.047490
LeftForeArm 14.269001 -0.000000 24.444154
LeftHand -12.802883 -0.000000 -10.768477
LeftHandThumb1 -26.253704 0.000000 33.147579
RightShoulder -39.118339 -50.083363 23.833451
RightArm 55.152459 -18.840103 49.896220
RightForeArm 3.139376 -0.000000 17.822027
RightHand -5.301639 0.000000 26.913475
RightHandThumb1 -24.326973 -0.000000 -32.862282
LeftUpLeg -29.212414 11.290493 -1.373800
LeftLeg 18.393088 -0.000000 -0.000000
LeftFoot -12.754062 12.471308 -0.131390
LeftToeBase 3.208015 -0.000000 -0.000000
RightUpLeg -77.544340 -12.485174 -5.281635
RightLeg 68.178552 -0.000000 -0.000000
RightFoot 30.761530 -17.534384 22.625003
RightToeBase 24.962924 -0.000000 -0.000000
2360
root 9.806196 36.631628 2.349831 170.443716 -70.340377 -507.664987
Spine -15.824269 -0.287560 0.584947
Head 44.278479 6.385627 17.815325
LeftShoulder -7.959818 20.980949 15.685749
LeftArm 19.891963 18.460420 -73.980575
LeftForeArm 14.322955 -0.000000 24.606243
LeftHand -12.795089 -0.000000 -10.857231
LeftHandThumb1 -26.253704 0.000000 33.147579
RightShoulder -39.236801 -50.098001 23.946344
RightArm 55.214601 -18.970293 49.719994
RightForeArm 3.375880 -0.000000 17.836640
RightHand -5.280996 -0.000000 27.693224
RightHandThumb1 -24.326973 -0.000000 -32.862282
LeftUpLeg -29.426405 11.407384 -1.425593
LeftLeg 18.414014 -0.000000 -0.000000
LeftFoot -12.787139 12.433810 -0.289000
LeftToeBase 3.337026 -0.000000 -0.000000
RightUpLeg -78.118199 -12.742978 -4.554299
RightLeg 69.474303 -0.000000 -0.000000
RightFoot 31.692530 -17.348688 23.700639
RightToeBase 26.533264 -0.000000 -0.000000
2361
root 9.801317 36.636365 2.345774 170.743378 -70.245371 -507.736588
Spine -16.236955 -0.231319 0.558871
Head 44.411458 6.405460 17.877147
LeftShoulder -8.005990 21.071972 15.681312
LeftArm 19.787560 18.492254 -73.939112
LeftForeArm 14.406620 -0.000000 24.745768
LeftHand -12.758548 -0.000000 -10.926965
LeftHandThumb1 -26.253704 0.000000 33.147579
RightShoulder -39.384643 -50.129474 24.084095
RightArm 55.315236 -19.064895 49.566144
RightForeArm 3.622652 -0.000000 17.822416
RightHand -5.251533 -0.000000 28.392787
RightHandThumb1 -24.326973 -0.000000 -32.862282
LeftUpLeg -29.653909 11.522570 -1.470327
LeftLeg 18.431844 -0.000000 -0.000000
LeftFoot -12.802637 12.401833 -0.413827
LeftToeBase 3.521678 -0.000000 -0.000000
RightUpLeg -78.708792 -13.013873 -3.770358
RightLeg 70.820623 -0.000000 -0.000000
RightFoot 32.429558 -16.986548 24.562358
RightToeBase 28.419693 -0.000000 -0.000000
2362
root 9.800610 36.643125 2.341300 171.062801 -70.169820 -507.751576
Spine -16.725904 -0.238725 0.568782
Head 44.544095 6.453038 17.884748
LeftShoulder -8.090045 21.190190 15.645304
LeftArm 19.674505 18.523131 -73.878419
LeftForeArm 14.491767 0.000000 24.902217
LeftHand -12.752854 -0.000000 -11.026063
LeftHandThumb1 -26.253704 0.000000 33.147579
RightShoulder -39.540563 -50.165793 24.193645
RightArm 55.438429 -19.153887 49.454262
RightForeArm 3.905333 -0.000000 17.777465
RightHand -5.116723 -0.000000 28.974609
RightHandThumb1 -24.326973 -0.000000 -32.862282
LeftUpLeg -29.966950 11.598253 -1.507470
LeftLeg 18.459602 -0.000000 -0.000000
LeftFoot -12.803100 12.373403 -0.498776
LeftToeBase 3.611952 -0.000000 -0.000000
RightUpLeg -79.401492 -13.305846 -2.875398
RightLeg 72.193672 -0.000000 -0.000000
RightFoot 33.065469 -16.485343 25.184598
RightToeBase 28.725156 -0.000000 -0.000000
2363
root 9.799907 36.648853 2.337788 171.405673 -70.080726 -507.826073
Spine -17.167805 -0.256927 0.565347
Head 44.658215 6.525589 17.879437
LeftShoulder -8.172796 21.290487 15.609300
LeftArm 19.538997 18.525927 -73.840093
LeftForeArm 14.613961 0.000000 25.032296
LeftHand -12.737775 -0.000000 -11.082811
LeftHandThumb1 -26.253704 0.000000 33.147579
RightShoulder -39.593985 -50.171603 24.209028
RightArm 55.447920 -19.210103 49.493964
RightForeArm 4.142938 0.000000 17.772501
RightHand -5.003122 -0.000000 29.442281
RightHandThumb1 -24.326973 -0.000000 -32.862282
LeftUpLeg -30.243053 11.676210 -1.554792
LeftLeg 18.484139 -0.000000 -0.000000
LeftFoot -12.804438 12.322335 -0.587919
LeftToeBase 3.729332 -0.000000 -0.000000
RightUpLeg -80.085291 -13.598495 -1.928326
RightLeg 73.570489 -0.000000 -0.000000
RightFoot 33.562467 -16.073125 25.705074
RightToeBase 28.911115 -0.000000 -0.000000
